<?xml version="1.0" encoding="UTF-8" standalone="no"?>
<!-- Generator: Adobe Illustrator 18.0.0, SVG Export Plug-In . SVG Version: 6.00 Build 0)  -->

<svg
   xmlns:dc="http://purl.org/dc/elements/1.1/"
   xmlns:cc="http://creativecommons.org/ns#"
   xmlns:rdf="http://www.w3.org/1999/02/22-rdf-syntax-ns#"
   xmlns:svg="http://www.w3.org/2000/svg"
   xmlns="http://www.w3.org/2000/svg"
   xmlns:xlink="http://www.w3.org/1999/xlink"
   xmlns:sodipodi="http://sodipodi.sourceforge.net/DTD/sodipodi-0.dtd"
   xmlns:inkscape="http://www.inkscape.org/namespaces/inkscape"
   version="1.1"
   id="Capa_1"
   x="0px"
   y="0px"
   viewBox="0 0 470.641 470.641"
   style="enable-background:new 0 0 470.641 470.641;"
   xml:space="preserve"
   sodipodi:docname="logowhite.svg"
   inkscape:version="0.92.3 (2405546, 2018-03-11)"><metadata
   id="metadata45"><rdf:RDF><cc:Work
       rdf:about=""><dc:format>image/svg+xml</dc:format><dc:type
         rdf:resource="http://purl.org/dc/dcmitype/StillImage" /><dc:title></dc:title></cc:Work></rdf:RDF></metadata><defs
   id="defs43" /><sodipodi:namedview
   pagecolor="#ffffff"
   bordercolor="#666666"
   borderopacity="1"
   objecttolerance="10"
   gridtolerance="10"
   guidetolerance="10"
   inkscape:pageopacity="0"
   inkscape:pageshadow="2"
   inkscape:window-width="3840"
   inkscape:window-height="2066"
   id="namedview41"
   showgrid="false"
   inkscape:zoom="4.0115503"
   inkscape:cx="283.6413"
   inkscape:cy="272.37435"
   inkscape:window-x="-11"
   inkscape:window-y="-11"
   inkscape:window-maximized="1"
   inkscape:current-layer="Capa_1" />
<g
   id="g8"
   transform="matrix(0.52809512,0,0,0.52809512,96.770973,98.055261)"
   style="fill:#030000;fill-opacity:1">
	<path
   d="m 425.667,241.03 24.035,-2.903 c 11.938,-1.442 20.938,-11.596 20.938,-23.619 0,-13.119 -10.673,-23.791 -23.791,-23.791 h -16.743 c -10.232,0 -18.976,6.494 -22.328,15.577 l -23.417,-51.261 c -8.688,-19.039 -26.052,-33.194 -46.45,-37.867 -0.942,-0.215 -1.968,-0.426 -3.06,-0.631 C 334.011,93.01 324.975,70.767 308.94,53.171 291.022,33.506 266.518,21.996 239.942,20.762 c -26.585,-1.243 -52.041,7.954 -71.705,25.872 -19.665,17.918 -31.175,42.422 -32.409,68.998 -0.014,0.301 -0.02,0.601 -0.031,0.902 -1.098,0.207 -2.13,0.418 -3.074,0.634 -20.396,4.675 -37.76,18.831 -46.449,37.871 L 62.859,206.284 C 59.504,197.207 50.764,190.718 40.535,190.718 H 23.791 C 10.673,190.717 0,201.389 0,214.508 c 0,12.023 9.001,22.177 20.938,23.619 l 24.031,2.903 -22.988,22.989 C 10.806,275.206 5.462,291.22 7.687,306.852 l 7.86,55.443 c 1.976,13.904 9.154,26.575 19.911,35.457 v 25.08 c 0,14.976 12.184,27.16 27.16,27.16 h 45.04 c 14.977,0 27.16,-12.184 27.16,-27.16 V 410.6 h 201.009 v 12.232 c 0,14.976 12.184,27.16 27.16,27.16 h 45.028 c 14.977,0 27.16,-12.184 27.16,-27.16 v -25.079 c 10.759,-8.883 17.937,-21.553 19.912,-35.457 l 7.871,-55.446 c 2.214,-15.649 -3.135,-31.662 -14.308,-42.834 z m -4.592,144.856 c -6.38,4.392 -13.858,6.713 -21.627,6.713 H 71.188 c -7.769,0 -15.247,-2.321 -21.63,-6.715 -8.2,-5.64 -13.883,-14.307 -15.827,-24.015 h 403.173 c -1.943,9.708 -7.626,18.375 -15.829,24.017 z m -79.724,-71.301 9.149,29.284 h -12.465 l -9.148,-29.284 z m -31.323,0 9.148,29.284 H 151.46 l 9.148,-29.284 z m -177.426,29.284 h -12.461 l 9.149,-29.284 h 12.461 z m -31.32,0 H 31.115 l -4.151,-29.284 h 83.467 z m 268.077,0 -9.149,-29.284 h 83.471 l -4.156,29.284 z m 54.956,-129.361 c 0,-3.193 2.598,-5.791 5.791,-5.791 h 16.743 c 3.193,0 5.791,2.598 5.791,5.791 0,2.926 -2.191,5.398 -5.097,5.749 l -23.229,2.806 v -8.555 z m -25.438,15.601 H 369.919 L 319.04,174.273 c 2.906,-4.487 5.44,-9.189 7.574,-14.072 11.68,0.828 20.774,1.832 26.511,2.936 6.35,1.222 12.371,3.27 17.939,6.094 z m -96.474,-36.236 c 1.859,-1.694 3.644,-3.447 5.356,-5.254 l 69.1,75.833 c 2.785,3.057 2.564,7.81 -0.492,10.595 -3.056,2.785 -7.811,2.564 -10.596,-0.492 l -69.117,-75.852 c 1.962,-1.538 3.888,-3.134 5.749,-4.83 z m 52.314,-48.74 c -5.555,-0.962 -13.021,-1.816 -22.311,-2.551 0.591,-2.594 1.085,-5.22 1.469,-7.874 0.006,0.001 0.012,0.002 0.018,0.004 7.728,1.77 14.853,5.407 20.824,10.421 z M 153.809,116.466 c 1.012,-21.772 10.441,-41.848 26.552,-56.528 15.152,-13.807 34.508,-21.287 54.87,-21.287 1.288,0 2.581,0.03 3.877,0.09 21.772,1.011 41.848,10.441 56.528,26.552 30.305,33.258 27.902,84.97 -5.355,115.275 -16.11,14.68 -36.974,22.202 -58.747,21.197 -21.772,-1.012 -41.848,-10.441 -56.528,-26.552 -14.681,-16.111 -22.209,-36.974 -21.197,-58.747 z m -17.068,18.247 c 0.003,-0.001 0.007,-0.001 0.01,-0.002 0.383,2.649 0.868,5.274 1.46,7.87 -9.304,0.741 -16.765,1.596 -22.292,2.554 5.972,-5.015 13.096,-8.652 20.822,-10.422 z m -37.154,34.511 c 5.563,-2.819 11.584,-4.865 17.941,-6.088 5.7,-1.099 14.793,-2.105 26.503,-2.941 4.308,9.822 10.234,18.982 17.669,27.141 17.919,19.665 42.423,31.174 68.998,32.409 1.583,0.074 3.157,0.11 4.731,0.11 16.182,0 31.835,-3.895 45.899,-11.248 l 19.593,21.502 H 71.771 Z M 18,214.508 c 0,-3.193 2.598,-5.791 5.791,-5.791 h 16.743 c 3.193,0 5.791,2.598 5.791,5.791 v 8.555 L 23.096,220.257 C 20.191,219.906 18,217.434 18,214.508 Z m 45.346,33.601 h 253.978 l 35.144,38.568 c 5.023,5.514 11.93,8.313 18.859,8.313 6.133,0 12.285,-2.193 17.164,-6.64 10.394,-9.471 11.144,-25.631 1.674,-36.024 l -3.844,-4.218 h 20.971 l 28.633,28.634 c 5.35,5.35 8.622,12.424 9.364,19.842 H 25.354 c 0.739,-7.414 4.009,-14.488 9.358,-19.842 z m 53.473,174.722 c 0,5.051 -4.109,9.16 -9.16,9.16 h -45.04 c -5.051,0 -9.16,-4.109 -9.16,-9.16 v -15.098 c 5.671,1.885 11.639,2.866 17.729,2.866 h 45.631 z m 291.198,9.16 h -45.028 c -5.051,0 -9.16,-4.109 -9.16,-9.16 v -12.232 h 45.62 c 6.091,0 12.058,-0.98 17.729,-2.865 v 15.098 c -10e-4,5.05 -4.111,9.159 -9.161,9.159 z"
   id="path2"
   inkscape:connector-curvature="0"
   style="fill:#030000;fill-opacity:1" />
	<path
   d="m 231.913,193.6 c 1.167,0.055 2.328,0.082 3.488,0.082 18.321,-10e-4 35.74,-6.732 49.373,-19.155 29.927,-27.269 32.089,-73.801 4.819,-103.728 -13.209,-14.498 -31.274,-22.982 -50.866,-23.893 -19.604,-0.922 -38.365,5.864 -52.861,19.073 -29.927,27.269 -32.089,73.801 -4.819,103.728 13.209,14.498 31.274,22.983 50.866,23.893 z M 197.989,79.284 c 10.292,-9.378 23.438,-14.459 37.27,-14.459 0.875,0 1.754,0.021 2.634,0.062 14.789,0.687 28.425,7.092 38.396,18.035 20.584,22.59 18.952,57.715 -3.638,78.3 -10.942,9.972 -25.116,15.09 -39.903,14.397 -14.789,-0.687 -28.425,-7.092 -38.396,-18.035 -20.584,-22.59 -18.953,-57.715 3.637,-78.3 z"
   id="path4"
   inkscape:connector-curvature="0"
   style="fill:#030000;fill-opacity:1" />
	<path
   d="m 255.184,142.051 c -3.674,3.348 -3.938,9.04 -0.591,12.714 1.775,1.949 4.211,2.938 6.655,2.938 2.163,0 4.334,-0.775 6.059,-2.348 9.377,-8.544 14.864,-20.228 15.453,-32.899 0.589,-12.672 -3.793,-24.814 -12.337,-34.19 -3.349,-3.673 -9.041,-3.938 -12.714,-0.59 -3.675,3.348 -3.938,9.041 -0.591,12.714 5.306,5.822 8.026,13.362 7.661,21.231 -0.365,7.869 -3.773,15.125 -9.595,20.43 z"
   id="path6"
   inkscape:connector-curvature="0"
   style="fill:#030000;fill-opacity:1" />
</g>
<g
   id="g10">
</g>
<g
   id="g12">
</g>
<g
   id="g14">
</g>
<g
   id="g16">
</g>
<g
   id="g18">
</g>
<g
   id="g20">
</g>
<g
   id="g22">
</g>
<g
   id="g24">
</g>
<g
   id="g26">
</g>
<g
   id="g28">
</g>
<g
   id="g30">
</g>
<g
   id="g32">
</g>
<g
   id="g34">
</g>
<g
   id="g36">
</g>
<g
   id="g38">
</g>
<path
   style="opacity:1;fill:none;fill-opacity:0;stroke:none;stroke-width:10.16553974;stroke-linecap:round;stroke-linejoin:round;stroke-miterlimit:4;stroke-dasharray:none;stroke-dashoffset:0;stroke-opacity:0.05752958;paint-order:stroke fill markers"
   id="path882"
   sodipodi:type="arc"
   sodipodi:cx="-35.345348"
   sodipodi:cy="-233.55353"
   sodipodi:rx="119.99397"
   sodipodi:ry="108.23685"
   sodipodi:start="0.51121392"
   sodipodi:end="0.50177867"
   sodipodi:open="true"
   d="M 69.307546,-180.60013 A 119.99397,108.23685 0 0 1 -93.803739,-139.02998 119.99397,108.23685 0 0 1 -140.27403,-286.061 119.99397,108.23685 0 0 1 22.618029,-328.32478 119.99397,108.23685 0 0 1 69.85678,-181.49315"
   transform="rotate(115.41533)" /><text
   xml:space="preserve"
   style="font-style:normal;font-variant:normal;font-weight:normal;font-stretch:normal;font-size:32px;line-height:1.25;font-family:'Arial Rounded MT Bold';-inkscape-font-specification:'Arial Rounded MT Bold, Normal';font-variant-ligatures:normal;font-variant-caps:normal;font-variant-numeric:normal;font-feature-settings:normal;text-align:start;letter-spacing:0px;word-spacing:0px;writing-mode:lr-tb;text-anchor:start;fill:#000000;fill-opacity:1;stroke:none"
   id="text886"
   transform="matrix(1.2308655,-0.00575055,0.00579535,1.2173553,-58.695145,157.34879)"><textPath
     xlink:href="#path882"
     id="textPath892"><tspan
   id="tspan884">LOREM IPSUM DOLOR SIT AMET</tspan></textPath></text>
<path
   style="opacity:1;fill:none;fill-opacity:0.01522845;stroke:none;stroke-width:9.07086658;stroke-linecap:round;stroke-linejoin:round;stroke-miterlimit:4;stroke-dasharray:none;stroke-dashoffset:0;stroke-opacity:0.05752958;paint-order:stroke fill markers"
   id="path888"
   sodipodi:type="arc"
   sodipodi:cx="125.13866"
   sodipodi:cy="158.04364"
   sodipodi:rx="36.145626"
   sodipodi:ry="7.7276859"
   sodipodi:start="0.51121392"
   sodipodi:end="0.50177867"
   sodipodi:open="true"
   d="m 156.66311,161.8243 a 36.145626,7.7276859 0 0 1 -49.1338,2.96795 36.145626,7.7276859 0 0 1 -13.998181,-10.49744 36.145626,7.7276859 0 0 1 49.067761,-3.01747 36.145626,7.7276859 0 0 1 14.22966,10.48321" /></svg>